# AST/ASF file generated using VICON BodyLanguage
# -----------------------------------------------
:version 1.10
:name VICON
:units
  mass 1.0
  length 0.45
  angle deg
:documentation
   .ast/.asf automatically generated from VICON data using
   VICON BodyBuilder and BodyLanguage model FoxedUp or BRILLIANT.MOD
:root
   order TX TY TZ RX RY RZ
   axis XYZ
   position 0 0 0  
   orientation 0 0 0 
:bonedata
  begin
     id 1 
     name lhipjoint
     direction 0.611804 -0.747784 0.257906 
     length 2.29243 
     axis 0 0 0  XYZ
  end
  begin
     id 2 
     name lfemur
     direction 0.34202 -0.939693 0  
     length 7.31159  
     axis 0 0 20  XYZ
    dof rx ry rz
    limits (-160.0 20.0)
           (-70.0 70.0)
           (-60.0 70.0)
  end
  begin
     id 3 
     name ltibia
     direction 0.34202 -0.939693 0   
     length 7.33391   
     axis 0 0 20   XYZ
    dof rx
    limits (-10.0 170.0)
  end
  begin
     id 4 
     name lfoot
     direction 0.122263 -0.335914 0.933924   
     length 1.76083   
     axis -90 7.62852e-016 20   XYZ
    dof rx rz
    limits (-45.0 90.0)
           (-70.0 20.0)
  end
  begin
     id 5 
     name ltoes
     direction 1.53533e-011 -4.2177e-011 1   
     length 0.879206   
     axis -90 7.62852e-016 20   XYZ
    dof rx
    limits (-90.0 20.0)
  end
  begin
     id 6 
     name rhipjoint
     direction -0.646469 -0.721248 0.248754   
     length 2.37677  
     axis 0 0 0  XYZ 
  end
  begin
     id 7 
     name rfemur
     direction -0.34202 -0.939693 0   
     length 7.18623   
     axis 0 0 -20   XYZ
    dof rx ry rz
    limits (-160.0 20.0)
           (-70.0 70.0)
           (-70.0 60.0)
  end
  begin
     id 8 
     name rtibia
     direction -0.34202 -0.939693 0   
     length 7.36567   
     axis 0 0 -20   XYZ
    dof rx
    limits (-10.0 170.0)
 end
 begin
     id 9 
     name rfoot
     direction -0.126681 -0.348054 0.928876   
     length 1.71902  
     axis -90 -7.62852e-016 -20   XYZ
    dof rx rz
    limits (-45.0 90.0)
           (-20.0 70.0)
  end
  begin
     id 10 
     name rtoes
     direction -1.53551e-011 -4.21898e-011 1   
     length 0.857792   
     axis -90 -7.62852e-016 -20   XYZ
    dof rx
    limits (-90.0 20.0)
  end
  begin
     id 11 
     name lowerback
     direction 0.0106509 0.999778 0.0181844   
     length 2.07668   
     axis 0 0 0   XYZ
    dof rx ry rz
    limits (-20.0 45.0)
           (-30.0 30.0)
           (-30.0 30.0)
  end
  begin
     id 12 
     name upperback
     direction -0.00456018 0.999989 -0.000590935   
     length 2.08011   
     axis 0 0 0   XYZ
    dof rx ry rz
    limits (-20.0 45.0)
           (-30.0 30.0)
           (-30.0 30.0)
  end
  begin
     id 13 
     name thorax
     direction -0.00910382 0.999916 -0.00923765   
     length 2.07397   
     axis 0 0 0   XYZ
    dof rx ry rz
    limits (-20.0 45.0)
           (-30.0 30.0)
           (-30.0 30.0)
  end
  begin
     id 14 
     name lowerneck
     direction 0.00171967 0.99778 0.0665733   
     length 1.67556   
     axis 0 0 0   XYZ
    dof rx ry rz
    limits (-20.0 45.0)
           (-30.0 30.0)
           (-30.0 30.0)
  end
  begin
     id 15 
     name upperneck
     direction -0.0143166 0.991302 -0.130828   
     length 1.68462   
     axis 0 0 0   XYZ
    dof rx ry rz
    limits (-20.0 45.0)
           (-30.0 30.0)
           (-30.0 30.0)
  end
  begin
     id 16
     name head
     direction -0.00606378 0.998665 -0.0512995  
     length 1.69269  
     axis 0 0 0   XYZ
    dof rx ry rz
    limits (-20.0 45.0)
           (-30.0 30.0)
           (-30.0 30.0)
  end
  begin
     id 17 
     name lclavicle
     direction 0.9638 0.179341 0.197297  
     length 4.12888  
     axis 0 0 0   XYZ
    dof ry rz
    limits (-20.0 10.0)
           (0.0 20.0)
  end
  begin
     id 18 
     name lhumerus
     direction 1 -4.48972e-011 -2.47351e-027   
     length 5.01834   
     axis -180 -30 -90   XYZ
    dof rx ry rz
    limits (-60.0 90.0)
           (-90.0 90.0)
           (-90.0 90.0)
  end
  begin
     id 19
     name lradius
     direction 1 -4.48965e-011 1.51591e-026   
     length 3.4869   
     axis -180 -30 -90   XYZ
    dof rx
    limits (-10.0 170.0)
  end
  begin
     id 20
     name lwrist
     direction 1 -4.48957e-011 2.70032e-026   
     length 1.74345   
     axis -1.81515e-014 90 90   XYZ
    dof ry
    limits (-180.0 0.0)
 end
  begin
     id 21 
     name lhand
     direction 1 -4.48951e-011 5.40064e-026   
     length 0.76799   
     axis -3.44607e-014 90 90   XYZ
    dof rx rz
    limits (-90.0 90.0)
           (-45.0 45.0)
  end
  begin
     id 22 
     name lfingers
     direction 1 -4.48971e-011 1.08013e-025   
     length 0.619174   
     axis -6.89214e-014 90 90   XYZ
    dof rx
    limits (0.0 90.0)
  end
  begin
     id 23
     name lthumb
     direction 0.707107 -6.34931e-011 0.707107   
     length 0.889013   
     axis -90 45 2.85299e-015   XYZ
    dof rx rz
    limits (-45.0 45.0)
           (-45.0 45.0)
  end
  begin
     id 24 
     name rclavicle
     direction -0.961409 0.252588 0.109054   
     length 4.04305  
     axis 0 0 0   XYZ 
    dof ry rz
    limits (-10.0 20.0)
           (-20.0 0.0)
  end
  begin
     id 25 
     name rhumerus
     direction -1 -4.4897e-011 1.33872e-017  
     length 4.70164   
     axis -180 30 90   XYZ
    dof rx ry rz
    limits (-90.0 60.0)
           (-90.0 90.0)
           (-90.0 90.0)
  end
  begin
     id 26 
     name rradius
     direction -1 -4.48954e-011 1.83844e-026   
     length 3.49911   
     axis -180 30 90   XYZ
    dof rx
    limits (-10.0 170.0)
  end
  begin
     id 27 
     name rwrist
     direction -1 -4.49008e-011 2.70032e-026   
     length 1.74955   
     axis -1.81515e-014 -90 -90   XYZ
    dof ry
    limits (-180.0 0.0)
  end
  begin
     id 28
     name rhand
     direction -1 -4.48916e-011 5.40064e-026   
     length 0.739335   
     axis -3.44607e-014 -90 -90   XYZ
    dof rx rz
    limits (-90.0 90.0)
           (-45.0 45.0)
  end
  begin
     id 29
     name rfingers
     direction -1 -4.48987e-011 1.08013e-025   
     length 0.596071   
     axis -6.89214e-014 -90 -90   XYZ
    dof rx
    limits (0.0 90.0)
  end
  begin
     id 30
     name rthumb
     direction -0.707107 -6.34935e-011 0.707107   
     length 0.855843   
     axis -90 -45 -2.85299e-015   XYZ
    dof rx rz
    limits (-45.0 45.0)
           (-45.0 45.0)
  end
:hierarchy
  begin
    root lhipjoint rhipjoint lowerback
    lhipjoint lfemur
    lfemur ltibia
    ltibia lfoot
    lfoot ltoes
    rhipjoint rfemur
    rfemur rtibia
    rtibia rfoot
    rfoot rtoes
    lowerback upperback
    upperback thorax
    thorax lowerneck lclavicle rclavicle
    lowerneck upperneck
    upperneck head
    lclavicle lhumerus
    lhumerus lradius
    lradius lwrist
    lwrist lhand lthumb
    lhand lfingers
    rclavicle rhumerus
    rhumerus rradius
    rradius rwrist
    rwrist rhand rthumb
    rhand rfingers
  end

#!OML:ASF I:\salsa\salsa 7_09\Patient 1\Session 1\dancermale.ASF
:FULLY-SPECIFIED
:DEGREES
735
root 11.3408 17.5251 -5.96427 369.007 2.42465 362.647
lowerback -10.4035 1.61432 5.39098
upperback -2.24853 1.618 -1.34119
thorax 3.66981 0.860666 -4.22389
lowerneck -12.2923 0.561372 1.04907
upperneck 26.56 0.478837 0.351999
head 10.5332 0.380733 0.00894447
rclavicle 5.6343e-015 -1.43125e-014
rhumerus 56.574 -2.43766 -3.85862
rradius 89.0185
rwrist -29.9891
rhand 5.89678 -6.20721
rfingers 7.12502
rthumb 31.225 -33.5656
lclavicle 5.6343e-015 -1.43125e-014
lhumerus 56.6989 -15.9176 -5.8547
lradius 81.3322
lwrist 95.5959
lhand -3.99476 65.0417
lfingers 7.12502
lthumb 21.759 266.161
rfemur -15.6335 18.4913 9.17534
rtibia 22.4237
rfoot -17.9772 6.42656
rtoes -16.6633
lfemur -13.419 -17.6372 -3.59953
ltibia 37.3354
lfoot 4.48752 -11.6514
ltoes 12.911
736
root 11.6013 17.5093 -5.95856 368.893 -0.0383335 362.76
lowerback -10.6058 1.78888 5.4757
upperback -2.16021 1.82459 -1.31598
thorax 3.89974 0.971441 -4.21142
lowerneck -12.3138 -0.145483 0.277821
upperneck 26.8125 -0.484401 0.799823
head 10.6299 -0.0893821 0.179181
rclavicle -1.25576e-014 -1.27222e-014
rhumerus 55.5463 -0.463822 -3.80329
rradius 91.7317
rwrist -31.3778
rhand 7.88141 -6.44823
rfingers 7.12502
rthumb 33.1143 -33.4243
lclavicle -1.25576e-014 -1.27222e-014
lhumerus 54.096 -20.0982 -3.08998
lradius 84.8981
lwrist 97.3356
lhand -7.25099 64.3772
lfingers 7.12502
lthumb 18.6294 266.495
rfemur -16.6504 19.1733 7.98831
rtibia 23.5159
rfoot -17.6255 6.82771
rtoes -13.9606
lfemur -11.7387 -16.6146 -5.53966
ltibia 37.0614
lfoot 2.5497 -10.3878
ltoes 6.86228
737
root 11.8627 17.4916 -5.95483 368.785 -2.40499 362.838
lowerback -10.777 1.94777 5.47994
upperback -2.09555 2.01856 -1.23247
thorax 4.0819 1.07275 -4.09296
lowerneck -12.0738 -0.817085 -0.0535171
upperneck 26.8442 -1.35787 0.729598
head 10.5988 -0.537275 0.100296
rclavicle -1.37286e-014 -5.1684e-015
rhumerus 54.1345 1.97402 -3.35659
rradius 94.6273
rwrist -32.1946
rhand 9.57004 -6.7382
rfingers 7.12502
rthumb 34.7184 -33.3595
lclavicle -1.37286e-014 -5.1684e-015
lhumerus 51.3522 -24.6933 0.518412
lradius 88.3105
lwrist 98.0271
lhand -7.85115 62.8981
lfingers 7.12502
lthumb 18.0521 267.92
rfemur -17.7908 19.7144 6.78981
rtibia 24.651
rfoot -16.8338 7.44516
rtoes -10.4876
lfemur -9.95975 -15.3808 -7.35657
ltibia 36.318
lfoot 0.813767 -8.67238
ltoes 1.44673
738
root 12.1189 17.4751 -5.95429 368.774 -4.69547 362.871
lowerback -10.9939 2.27699 5.48522
upperback -1.8267 2.44447 -1.39361
thorax 4.54041 1.3028 -4.19133
lowerneck -12.6332 -1.52465 0.311268
upperneck 26.925 -2.45908 0.678033
head 10.7395 -1.01202 -0.125703
rclavicle -1.14658e-014 1.86858e-014
rhumerus 51.756 4.40868 -3.00294
rradius 97.5436
rwrist -31.7674
rhand 10.5233 -6.92433
rfingers 7.12502
rthumb 35.6225 -33.3327
lclavicle -1.14658e-014 1.86858e-014
lhumerus 49.2933 -29.0196 4.51301
lradius 91.5273
lwrist 97.9692
lhand -10.2811 61.7198
lfingers 7.12502
lthumb 15.713 268.898
rfemur -19.4101 19.3655 5.60585
rtibia 26.1955
rfoot -15.6528 8.65988
rtoes -7.99697
lfemur -8.37846 -13.4956 -8.87223
ltibia 35.2741
lfoot -0.599976 -7.24321
ltoes -2.14472
739
root 12.3718 17.4622 -5.95919 368.848 -6.84079 362.971
lowerback -11.312 2.46351 5.38989
upperback -1.6103 2.68912 -1.54167
thorax 4.97661 1.43931 -4.24171
lowerneck -13.1156 -2.11648 0.970209
upperneck 27.0627 -3.36673 0.239028
head 10.8671 -1.41307 -0.521036
rclavicle -5.52249e-015 -1.47101e-014
rhumerus 49.3258 7.35206 -3.00061
rradius 100.389
rwrist -29.9275
rhand 11.0714 -6.99293
rfingers 7.12502
rthumb 36.1418 -33.2745
lclavicle -5.52249e-015 -1.47101e-014
lhumerus 46.6236 -33.5709 9.28695
lradius 94.3827
lwrist 96.8911
lhand -13.0846 60.8158
lfingers 7.12502
lthumb 13.0116 269.61
rfemur -21.4491 18.5216 4.42066
rtibia 28.2659
rfoot -14.0773 9.74743
rtoes -6.11502
lfemur -7.24359 -11.1478 -10.1792
ltibia 34.3219
lfoot -1.83466 -6.42563
ltoes -4.12747
740
root 12.6217 17.4525 -5.96804 368.979 -8.85693 363.219
lowerback -11.735 2.28375 5.04648
upperback -1.38882 2.46338 -1.48309
thorax 5.40264 1.33527 -4.00761
lowerneck -13.4246 -2.44113 1.27076
upperneck 27.0455 -3.79049 -0.242265
head 10.9013 -1.63846 -0.806381
rclavicle -9.60378e-015 -1.51076e-014
rhumerus 47.5747 10.582 -3.4243
rradius 102.962
rwrist -26.9259
rhand 11.5557 -6.89112
rfingers 7.12502
rthumb 36.6003 -33.0579
lclavicle -9.60378e-015 -1.51076e-014
lhumerus 42.3086 -38.002 15.526
lradius 96.6857
lwrist 94.8592
lhand -16.6619 61.1932
lfingers 7.12502
lthumb 9.56154 269.044
rfemur -24.2141 16.9132 3.24064
rtibia 31.6029
rfoot -12.2274 10.9027
rtoes -2.89446
lfemur -6.58647 -8.89967 -11.5257
ltibia 33.6777
lfoot -3.01844 -5.87213
ltoes -5.81213
741
root 12.8634 17.4441 -5.97644 369.066 -10.86 363.597
lowerback -12.1299 1.9697 4.54133
upperback -1.08608 2.0853 -1.4192
thorax 5.88108 1.1535 -3.70599
lowerneck -13.1969 -2.54834 0.706646
upperneck 26.4154 -3.94804 0.302021
head 10.6467 -1.71602 -0.525498
rclavicle 7.72775e-015 -1.90833e-014
rhumerus 45.8814 13.7165 -4.2929
rradius 105.149
rwrist -23.4746
rhand 11.8344 -6.56273
rfingers 7.12502
rthumb 36.8641 -32.6622
lclavicle 7.72775e-015 -1.90833e-014
lhumerus 36.9737 -41.9872 23.0755
lradius 98.4135
lwrist 92.4975
lhand -16.9963 60.3766
lfingers 7.12502
lthumb 9.2389 269.846
rfemur -27.1809 14.8136 2.25073
rtibia 35.4559
rfoot -10.035 11.9483
rtoes 0.368734
lfemur -6.17429 -6.99254 -13.0262
ltibia 33.2769
lfoot -4.23461 -5.31345
ltoes -7.83482
742
root 13.0953 17.4344 -5.9846 369.035 -12.8478 363.909
lowerback -12.2487 1.74083 4.16402
upperback -0.760614 1.83061 -1.51657
thorax 6.25867 1.03431 -3.63535
lowerneck -13.1226 -2.64805 0.400294
upperneck 25.8137 -4.15641 0.846764
head 10.4317 -1.78917 -0.300157
rclavicle -2.49475e-014 1.98785e-015
rhumerus 43.5713 16.7137 -5.76154
rradius 106.979
rwrist -20.1331
rhand 12.0924 -6.23052
rfingers 7.12502
rthumb 37.1081 -32.267
lclavicle -2.49475e-014 1.98785e-015
lhumerus 31.4174 -45.6245 31.1235
lradius 99.6819
lwrist 90.1025
lhand -18.5163 58.9744
lfingers 7.12502
lthumb 7.77199 448.812
rfemur -30.1777 12.3329 1.84215
rtibia 39.7168
rfoot -7.05846 12.0461
rtoes 8.47012
lfemur -5.81036 -5.47231 -14.4692
ltibia 33.0973
lfoot -5.54922 -4.648
ltoes -9.7439
743
root 13.3189 17.4171 -5.99206 368.969 -14.786 364.047
lowerback -11.7685 1.55876 4.50513
upperback -0.705341 1.5969 -2.06898
thorax 6.0527 0.934426 -4.46544
lowerneck -13.4861 -2.71053 0.996077
upperneck 25.7979 -4.46275 1.03598
head 10.4898 -1.85176 -0.380056
rclavicle -4.5969e-015 -5.1684e-015
rhumerus 40.659 19.9025 -8.47577
rradius 108.319
rwrist -16.892
rhand 13.0252 -6.01307
rfingers 7.12502
rthumb 37.9896 -31.8151
lclavicle -4.5969e-015 -5.1684e-015
lhumerus 25.4654 -49.088 38.8821
lradius 100.555
lwrist 87.2973
lhand -19.6121 57.7313
lfingers 7.12502
lthumb 6.71432 447.605
rfemur -33.0859 9.83102 2.06035
rtibia 44.0415
rfoot -4.6219 10.6422
rtoes 15.5998
lfemur -5.46417 -4.33746 -15.7404
ltibia 33.0491
lfoot -6.97852 -3.71897
ltoes -11.3569
744
root 13.5309 17.3884 -5.99418 368.853 -16.6946 364.111
lowerback -11.7624 1.23975 3.66582
upperback -0.205541 1.25772 -1.67015
thorax 6.51243 0.757139 -3.62063
lowerneck -14.0442 -2.81474 0.87149
upperneck 25.3153 -4.48738 0.708581
head 10.4144 -1.91865 -0.483442
rclavicle -3.72721e-015 4.13472e-014
rhumerus 38.3788 22.1858 -9.7204
rradius 109.204
rwrist -13.665
rhand 14.3762 -5.94221
rfingers 7.12502
rthumb 39.2642 -31.3861
lclavicle -3.72721e-015 4.13472e-014
lhumerus 19.1919 -51.0838 48.5432
lradius 100.906
lwrist 83.6478
lhand -20.3855 56.3099
lfingers 7.12502
lthumb 5.96767 446.206
rfemur -35.803 6.80568 3.14364
rtibia 48.0857
rfoot -3.87405 8.18696
rtoes 8.01733
lfemur -4.98124 -3.45976 -16.9562
ltibia 32.8747
lfoot -8.3114 -2.51778
ltoes -12.3739
745
root 13.7283 17.3505 -5.98885 368.547 -18.6358 364.122
lowerback -11.291 0.944705 3.00606
upperback 0.132912 0.950707 -1.42296
thorax 6.56097 0.587861 -3.03928
lowerneck -14.1271 -2.78421 0.924521
upperneck 24.6256 -4.36209 0.413849
head 10.1698 -1.90239 -0.573502
rclavicle 4.52235e-015 -2.94201e-014
rhumerus 36.0792 24.5343 -11.0844
rradius 109.582
rwrist -9.669
rhand 15.3155 -5.7934
rfingers 7.12502
rthumb 40.1485 -30.9745
lclavicle 4.52235e-015 -2.94201e-014
lhumerus 13.1578 -52.6752 57.926
lradius 100.544
lwrist 79.8035
lhand -21.2024 55.236
lfingers 7.12502
lthumb 5.17897 445.153
rfemur -38.1052 3.89777 4.75334
rtibia 51.6402
rfoot -3.53349 4.96415
rtoes 6.25577
lfemur -4.10083 -2.62491 -18.1217
ltibia 32.3972
lfoot -9.41176 -1.22302
ltoes -12.7358
746
root 13.9169 17.3062 -5.97494 368.137 -20.4141 364.045
lowerback -10.4287 0.591332 2.42877
upperback 0.28695 0.557299 -1.1475
thorax 6.19643 0.368161 -2.48846
lowerneck -13.8512 -2.64926 1.06965
upperneck 23.9429 -4.06769 -0.0545359
head 9.85661 -1.82102 -0.710688
rclavicle -5.46658e-015 -1.23246e-014
rhumerus 34.0281 26.9039 -12.2942
rradius 109.507
rwrist -4.82122
rhand 15.7254 -5.30713
rfingers 7.12502
rthumb 40.534 -30.3698
lclavicle -5.46658e-015 -1.23246e-014
lhumerus 7.11293 -53.7506 67.1983
lradius 100.071
lwrist 75.9807
lhand -22.6556 54.7943
lfingers 7.12502
lthumb 3.77568 444.741
rfemur -39.9703 1.05486 6.93353
rtibia 54.7265
rfoot -4.36894 1.03716
rtoes 4.02887
lfemur -3.0238 -1.84246 -19.1627
ltibia 31.7604
lfoot -10.3506 0.069185
ltoes -12.755
747
root 14.0975 17.2567 -5.94796 367.781 -21.8277 363.961
lowerback -9.49066 0.121934 1.87299
upperback 0.32457 -0.00348904 -0.821879
thorax 5.66953 0.0640315 -1.91498
lowerneck -13.6988 -2.46438 1.00122
upperneck 23.5414 -3.68947 -0.431121
head 9.67953 -1.70281 -0.775674
rclavicle -2.38542e-014 -3.97569e-016
rhumerus 32.2112 29.0643 -13.3449
rradius 109.076
rwrist 0.302501
rhand 15.6911 -4.71856
rfingers 7.12502
rthumb 40.5017 -29.7913
lclavicle -2.38542e-014 -3.97569e-016
lhumerus 1.53836 -54.406 75.8313
lradius 99.013
lwrist 72.6858
lhand -24.0576 53.4162
lfingers 7.12502
lthumb 2.42171 443.382
rfemur -41.4677 -1.92257 9.39961
rtibia 57.1784
rfoot -5.95312 -0.604238
rtoes 1.9962
lfemur -2.11908 -1.2666 -20.1644
ltibia 31.2062
lfoot -11.1627 1.50643
ltoes -12.3124
